<svg width="200" height="200" viewBox="0 0 200 200" fill="none" xmlns="http://www.w3.org/2000/svg">
<rect width="200" height="200" rx="20" fill="#8E6A99"/>
<path d="M76.3594 55.375H79.5703L93.3281 88H88.4531L85.1484 79.7969H70.6641L67.3828 88H62.6016L76.3594 55.375ZM83.6484 76.0469L77.9297 61.75L72.1875 76.0469H83.6484ZM103.547 88.375C101.594 88.375 99.6172 88.2344 97.6172 87.9531V83.8047C99.6484 84.2891 101.711 84.5312 103.805 84.5312C107.992 84.5312 110.086 83.6484 110.086 81.8828C110.086 81.2109 109.922 80.7109 109.594 80.3828C109.109 79.8672 108.344 79.3516 107.297 78.8359L103.875 77.2656C101.656 76.1562 100.219 75.2656 99.5625 74.5938C98.3281 73.3438 97.7109 71.8594 97.7109 70.1406C97.7109 68.2031 98.6094 66.625 100.406 65.4062C102.344 64.0938 105.062 63.4375 108.562 63.4375C110.328 63.4375 112.109 63.5625 113.906 63.8125V67.8203C111.938 67.4609 110.219 67.2812 108.75 67.2812C107.297 67.2812 106.164 67.375 105.352 67.5625C104.555 67.75 103.953 67.9844 103.547 68.2656C102.906 68.7031 102.586 69.2734 102.586 69.9766C102.586 70.6641 102.805 71.2266 103.242 71.6641C103.695 72.0859 104.398 72.5469 105.352 73.0469L108.797 74.7109C111.047 75.8828 112.492 76.7812 113.133 77.4062C114.352 78.5938 114.961 80.0859 114.961 81.8828C114.961 83.8047 113.992 85.3516 112.055 86.5234C110.023 87.7578 107.188 88.375 103.547 88.375ZM126.656 97.375H121.969V63.8125H126.188L126.375 66.5781C127.312 65.3281 128.75 64.3984 130.688 63.7891C131.438 63.5547 132.195 63.4375 132.961 63.4375C133.742 63.4375 134.508 63.5234 135.258 63.6953C136.008 63.8516 136.75 64.1172 137.484 64.4922C138.219 64.8516 138.922 65.3359 139.594 65.9453C140.266 66.5391 140.859 67.2812 141.375 68.1719C142.5 70.0938 143.062 72.4766 143.062 75.3203C143.062 79.6641 141.562 82.9844 138.562 85.2812C135.906 87.3281 132.672 88.3516 128.859 88.3516H127.688C127.312 88.3516 126.969 88.3438 126.656 88.3281V97.375ZM126.656 84.5312C127.094 84.6562 127.953 84.7188 129.234 84.7188C130.516 84.7188 131.719 84.5391 132.844 84.1797C133.969 83.8203 134.922 83.2656 135.703 82.5156C137.359 80.9219 138.188 78.5234 138.188 75.3203C138.188 72.3047 137.469 70.0781 136.031 68.6406C134.969 67.5781 133.672 67.0469 132.141 67.0469C130.219 67.0469 128.625 67.7578 127.359 69.1797C127.031 69.5391 126.797 69.8594 126.656 70.1406V84.5312ZM17.6016 138.488C16.8203 138.488 16.1693 138.28 15.6484 137.863C15.1406 137.434 14.8867 136.822 14.8867 136.027C14.8867 135.22 15.1406 134.602 15.6484 134.172C16.1693 133.742 16.8203 133.527 17.6016 133.527C18.3958 133.527 19.0534 133.742 19.5742 134.172C20.0951 134.602 20.3555 135.22 20.3555 136.027C20.3555 136.822 20.0951 137.434 19.5742 137.863C19.0534 138.28 18.3958 138.488 17.6016 138.488ZM25.5898 110.812H28.4023L42.6016 130.871L42.3867 128.059V110.812H46.2539V138H43.4609L31.6055 121.34L29.2422 117.941L29.457 121.34V138H25.5898V110.812ZM52.2891 110.812H69.8477V114.211H56.1953V122.219H66.5273V125.5H56.1953V134.562H69.8477V138H52.2891V110.812ZM82.3086 114.25H74.125V110.812H94.3984V114.25H86.2148V138H82.3086V114.25ZM130.805 137.844C129.516 138.078 127.777 138.195 125.59 138.195C123.415 138.195 121.449 137.896 119.691 137.297C117.947 136.698 116.443 135.812 115.18 134.641C112.471 132.128 111.117 128.625 111.117 124.133C111.117 121.203 111.814 118.664 113.207 116.516C115.095 113.612 117.992 111.763 121.898 110.969C123.096 110.734 124.522 110.617 126.176 110.617C127.842 110.617 129.177 110.708 130.18 110.891V114.621C129.268 114.335 127.855 114.191 125.941 114.191C124.04 114.191 122.426 114.426 121.098 114.895C119.77 115.363 118.669 116.034 117.797 116.906C116.052 118.612 115.18 121.021 115.18 124.133C115.18 127.271 116.039 129.758 117.758 131.594C119.62 133.573 122.296 134.562 125.785 134.562C127.829 134.562 129.503 134.406 130.805 134.094V137.844ZM134.398 127.883C134.398 124.719 135.408 122.154 137.426 120.188C139.314 118.352 141.651 117.434 144.438 117.434C147.172 117.434 149.457 118.352 151.293 120.188C153.246 122.141 154.223 124.706 154.223 127.883C154.223 131.047 153.24 133.599 151.273 135.539C149.411 137.388 147.126 138.312 144.418 138.312C141.671 138.312 139.34 137.388 137.426 135.539C135.408 133.599 134.398 131.047 134.398 127.883ZM138.461 127.883C138.461 131.216 139.529 133.482 141.664 134.68C142.419 135.096 143.324 135.305 144.379 135.305C145.434 135.305 146.326 135.096 147.055 134.68C147.784 134.25 148.383 133.69 148.852 133C149.724 131.672 150.16 129.966 150.16 127.883C150.16 124.576 149.112 122.31 147.016 121.086C146.286 120.656 145.414 120.441 144.398 120.441C143.383 120.441 142.497 120.656 141.742 121.086C141 121.503 140.388 122.056 139.906 122.746C138.943 124.1 138.461 125.812 138.461 127.883ZM171.84 121.418C171.124 121.21 170.264 121.105 169.262 121.105C168.272 121.105 167.458 121.21 166.82 121.418C166.182 121.613 165.622 121.854 165.141 122.141C164.255 122.661 163.611 123.247 163.207 123.898V138H159.301V117.844H163.051L163.207 120.637C164.184 119.413 165.609 118.495 167.484 117.883C168.161 117.648 168.936 117.531 169.809 117.531C170.681 117.531 171.358 117.596 171.84 117.727V121.418ZM185.121 138.312C177.751 138.312 174.066 134.712 174.066 127.512C174.066 124.413 175.089 121.932 177.133 120.07C178.969 118.378 181.065 117.531 183.422 117.531C185.987 117.531 187.992 118.391 189.438 120.109C190.779 121.711 191.449 123.853 191.449 126.535V128.059H178.129C178.129 131.743 179.633 133.996 182.641 134.816C183.357 135.012 184.457 135.109 185.941 135.109C187.439 135.109 188.904 134.908 190.336 134.504V137.805C188.904 138.143 187.165 138.312 185.121 138.312ZM187.543 125.188C187.543 123.938 187.198 122.883 186.508 122.023C185.701 121.034 184.587 120.539 183.168 120.539C181.671 120.539 180.453 121.014 179.516 121.965C178.656 122.85 178.227 123.924 178.227 125.188H187.543Z" fill="white"/>
</svg>
