<svg width="200" height="200" viewBox="0 0 200 200" fill="none" xmlns="http://www.w3.org/2000/svg">
<rect width="200" height="200" rx="20" fill="#8E6A99"/>
<path d="M91.7188 123.75C89.6562 124.125 86.875 124.312 83.375 124.312C79.8958 124.312 76.75 123.833 73.9375 122.875C71.1458 121.917 68.7396 120.5 66.7188 118.625C62.3854 114.604 60.2188 109 60.2188 101.812C60.2188 97.125 61.3333 93.0625 63.5625 89.625C66.5833 84.9792 71.2188 82.0208 77.4688 80.75C79.3854 80.375 81.6667 80.1875 84.3125 80.1875C86.9792 80.1875 89.1146 80.3333 90.7188 80.625V86.5938C89.2604 86.1354 87 85.9062 83.9375 85.9062C80.8958 85.9062 78.3125 86.2812 76.1875 87.0312C74.0625 87.7812 72.3021 88.8542 70.9062 90.25C68.1146 92.9792 66.7188 96.8333 66.7188 101.812C66.7188 106.833 68.0938 110.812 70.8438 113.75C73.8229 116.917 78.1042 118.5 83.6875 118.5C86.9583 118.5 89.6354 118.25 91.7188 117.75V123.75ZM105.844 113.375H98.5312V108.75H106.719L108.969 96.75H101.281V92.125H109.844L111.844 81.5H116.906L114.906 92.125H125.719L127.719 81.5H132.781L130.75 92.125H138.031V96.75H129.875L127.625 108.75H135.344V113.375H126.75L124.75 124H119.688L121.688 113.375H110.906L108.906 124H103.844L105.844 113.375ZM122.562 108.75L124.844 96.75H114.031L111.781 108.75H122.562Z" fill="white"/>
</svg>
