<svg width="298" height="230" viewBox="0 0 298 230" fill="none" xmlns="http://www.w3.org/2000/svg">
<path d="M243.367 0.501953H243.646C273.289 0.681346 297.5 29.4045 297.5 64.874L297.497 224.104C297.497 227.168 295.421 229.5 293.031 229.5H74.5C72.1103 229.5 70.0343 227.168 70.0342 224.104V194.116H44.7021C42.3123 194.116 40.2364 191.785 40.2363 188.72C40.2363 185.655 42.3123 183.323 44.7021 183.323L69.5342 183.32H70.0342V170.526H34.7676C32.3778 170.526 30.3019 168.195 30.3018 165.13C30.3018 162.065 32.3777 159.732 34.7676 159.732L69.5342 159.729H70.0342V146.937H24.835C22.4452 146.937 20.3693 144.605 20.3691 141.54C20.3691 138.475 22.4451 136.143 24.835 136.143L69.5342 136.14H70.0342V123.347H14.9004C12.5106 123.347 10.4346 121.014 10.4346 117.949C10.4347 114.884 12.5106 112.553 14.9004 112.553L69.5342 112.55H70.0342V99.7559H4.96582C2.57605 99.7557 0.5 97.4243 0.5 94.3594C0.500045 91.2945 2.57608 88.963 4.96582 88.9629H70.0342V58.9756C70.0343 55.9109 72.1103 53.5793 74.5 53.5791H190.071L190.137 53.1562C194.794 23.173 216.945 0.501953 243.367 0.501953ZM205.199 146.353L193.733 156.873C190.788 159.572 187.274 160.911 183.771 160.911C180.267 160.911 176.753 159.573 173.81 156.873L162.342 146.353L161.994 146.033L161.655 146.362L88.0645 217.855L87.1807 218.714H280.354L279.47 217.855L205.886 146.362L205.547 146.033L205.199 146.353ZM287.639 101.878C277.815 118.446 261.616 129.25 243.369 129.25C237.801 129.25 232.425 128.245 227.362 126.38L227.076 126.274L226.852 126.481L213.262 138.951L212.872 139.31L213.252 139.678L287.719 212.025L288.567 212.85V211.667L288.568 102.133V100.31L287.639 101.878ZM78.9668 212.847L79.8154 212.022L154.282 139.675L154.662 139.306L154.272 138.948L79.8047 70.6182L78.9668 69.8496V212.847ZM88.7158 65.2432L179.202 148.274H179.203C181.883 150.729 185.654 150.729 188.334 148.271L216.991 121.972L218.021 121.75L217.035 121.095C200.485 110.089 189.239 89.0301 189.239 64.875V64.375H87.7695L88.7158 65.2432ZM243.367 11.2949C218.366 11.2949 198.168 35.4167 198.168 64.873C198.168 94.333 218.366 118.45 243.367 118.45C268.368 118.45 288.566 94.3329 288.566 64.873C288.566 35.413 268.368 11.2951 243.367 11.2949Z" fill="#161617" stroke="black"/>
<path d="M267.618 29.5449C268.913 29.4611 270.172 29.8142 271.215 31.1631L271.228 31.1797L271.243 31.1953C272.388 32.4422 272.711 33.9933 272.637 35.6123C272.562 37.2418 272.087 38.8824 271.685 40.2637V40.2646C271.246 41.78 270.637 43.7113 269.838 46.127L268.976 48.707C266.959 54.6863 264.05 62.9265 260.332 73.2031C254.016 90.6634 247.453 108.194 247.385 108.381C246.644 110.354 245.027 111.555 243.315 111.555H243.285C241.561 111.542 239.942 110.311 239.219 108.312L229.467 81.2871L229.4 81.1006L229.223 81.0107L206.466 69.4307C204.848 68.6053 203.742 66.6832 203.73 64.4922C203.718 62.3004 204.802 60.3571 206.413 59.5078C206.698 59.3587 221.4 51.605 236.034 44.1387C244.687 39.7236 251.627 36.2698 256.659 33.876C259.741 32.4084 262.063 31.3593 263.761 30.6621C264.93 30.1823 266.283 29.6313 267.618 29.5449ZM254.958 58.1963L238.285 77.9941L238.099 78.2148L238.197 78.4863L242.912 91.5527L243.375 92.8398L243.851 91.5566C248.154 79.929 252.372 68.3549 255.811 58.6865L254.958 58.1963ZM248.091 49.7285C239.948 53.8152 230.199 58.8212 220.408 63.9316L219.548 64.3799L220.413 64.8203L231.417 70.4189L231.77 70.5986L232.026 70.2949L248.699 50.4971L248.091 49.7285Z" fill="#161617" stroke="black"/>
</svg>
