<svg width="200" height="200" viewBox="0 0 200 200" fill="none" xmlns="http://www.w3.org/2000/svg">
<rect width="200" height="200" rx="20" fill="#8E6A99"/>
<path d="M53.6367 66.5312H69.4395V69.5898H57.1523V76.7969H66.4512V79.75H57.1523V87.9062H69.4395V91H53.6367V66.5312ZM82.8516 75.6016C81.1055 75.6016 79.5527 76.1934 78.1934 77.377V91H74.6777V72.8594H77.9297L78.1758 74.8281C80.0859 73.3281 82.0605 72.5781 84.0996 72.5781C86.2559 72.5781 87.8379 73.2227 88.8457 74.5117C89.9004 75.8711 90.4277 78.0625 90.4277 81.0859V91H86.9121V81.0859C86.9121 78.1797 86.127 76.4453 84.5566 75.8828C84.0527 75.6953 83.4844 75.6016 82.8516 75.6016ZM102.223 88.2227C102.609 88.3633 103.195 88.4336 103.98 88.4336C104.766 88.4336 105.422 88.3398 105.949 88.1523V90.9648C105.703 91.0234 105.346 91.0586 104.877 91.0703L103.77 91.1055C103.523 91.1055 103.336 91.1055 103.207 91.1055C100.945 91.1055 99.2754 90.3672 98.1973 88.8906C97.3301 87.6953 96.8965 86.1133 96.8965 84.1445V75.5488H94.2949V73.8965L96.8965 72.8594L97.7402 68.3594H100.412V72.8594H106.037V75.5488H100.412V84.127C100.412 86.4238 101.016 87.7891 102.223 88.2227ZM114.809 67.5859C114.809 68.2539 114.586 68.7695 114.141 69.1328C113.707 69.4844 113.162 69.6602 112.506 69.6602C111.85 69.6602 111.305 69.4844 110.871 69.1328C110.449 68.7695 110.238 68.2539 110.238 67.5859C110.238 66.9062 110.449 66.3906 110.871 66.0391C111.305 65.6875 111.85 65.5117 112.506 65.5117C113.162 65.5117 113.707 65.6875 114.141 66.0391C114.586 66.3906 114.809 66.9062 114.809 67.5859ZM110.695 72.8594H114.211V91H110.695V72.8594ZM126.27 88.2227C126.656 88.3633 127.242 88.4336 128.027 88.4336C128.812 88.4336 129.469 88.3398 129.996 88.1523V90.9648C129.75 91.0234 129.393 91.0586 128.924 91.0703L127.816 91.1055C127.57 91.1055 127.383 91.1055 127.254 91.1055C124.992 91.1055 123.322 90.3672 122.244 88.8906C121.377 87.6953 120.943 86.1133 120.943 84.1445V75.5488H118.342V73.8965L120.943 72.8594L121.787 68.3594H124.459V72.8594H130.084V75.5488H124.459V84.127C124.459 86.4238 125.062 87.7891 126.27 88.2227ZM134.004 95.5C134.32 95.5938 134.748 95.6406 135.287 95.6406C135.838 95.6406 136.4 95.5293 136.975 95.3066C137.549 95.0957 138.047 94.7969 138.469 94.4102C139.172 93.7773 139.811 92.7812 140.385 91.4219L132.932 72.8594H136.676L141.914 87.3086L146.607 72.8594H150.316L142.863 93.2324C142.301 94.7559 141.521 95.9219 140.525 96.7305C139.213 97.7852 137.461 98.3125 135.27 98.3125C135.07 98.3125 134.865 98.3008 134.654 98.2773L134.004 98.207V95.5ZM7.16016 111.531H23.8066V114.59H10.6758V121.797H20.8184V124.75H10.6758V136H7.16016V111.531ZM39.7324 121.076C39.0879 120.889 38.3145 120.795 37.4121 120.795C36.5215 120.795 35.7891 120.889 35.2148 121.076C34.6406 121.252 34.1367 121.469 33.7031 121.727C32.9062 122.195 32.3262 122.723 31.9629 123.309V136H28.4473V117.859H31.8223L31.9629 120.373C32.8418 119.271 34.125 118.445 35.8125 117.895C36.4219 117.684 37.1191 117.578 37.9043 117.578C38.6895 117.578 39.2988 117.637 39.7324 117.754V121.076ZM44.0215 132.766C43.6348 132.098 43.3242 131.312 43.0898 130.41C42.8672 129.508 42.7559 128.33 42.7559 126.877C42.7559 125.424 43.0664 124.088 43.6875 122.869C44.3203 121.639 45.1406 120.631 46.1484 119.846C48.1055 118.334 50.5371 117.578 53.4434 117.578C54.9551 117.578 56.0977 117.613 56.8711 117.684C56.8711 117.684 57.4395 117.742 58.5762 117.859V136H55.4121L55.2715 133.908C54.5684 134.846 53.4961 135.543 52.0547 136C51.5039 136.176 50.9355 136.264 50.3496 136.264C49.7754 136.264 49.207 136.205 48.6445 136.088C48.082 135.971 47.5195 135.777 46.957 135.508C46.4062 135.238 45.8789 134.881 45.375 134.436C44.8711 133.979 44.4199 133.422 44.0215 132.766ZM55.0605 120.443C54.3105 120.35 53.5605 120.303 52.8105 120.303C52.0723 120.303 51.2812 120.438 50.4375 120.707C49.5938 120.965 48.873 121.375 48.2754 121.938C47.0332 123.109 46.4121 124.896 46.4121 127.299C46.4121 129.572 46.9453 131.254 48.0117 132.344C48.8203 133.152 49.793 133.557 50.9297 133.557C52.3945 133.557 53.6016 133.023 54.5508 131.957C54.7852 131.688 54.9551 131.447 55.0605 131.236V120.443ZM67.7871 122.377L67.8047 136H64.2891V117.859H67.5234L67.7695 119.846C69.0586 118.768 70.5586 118.064 72.2695 117.736C72.8203 117.631 73.3594 117.578 73.8867 117.578C76.0781 117.578 77.7305 118.504 78.8438 120.355C80.8828 118.504 83.0156 117.578 85.2422 117.578C87.4453 117.578 89.0508 118.24 90.0586 119.564C91.0664 120.912 91.5703 123.139 91.5703 126.244V136H88.0547V126.367C88.0547 123.32 87.3223 121.498 85.8574 120.9C85.3652 120.701 84.791 120.602 84.1348 120.602C82.5645 120.602 81.123 121.164 79.8105 122.289V136H76.2949V126.227C76.2949 124.141 75.9844 122.676 75.3633 121.832C74.7656 121.012 73.6934 120.602 72.1465 120.602C70.6113 120.602 69.1582 121.193 67.7871 122.377ZM105.686 136.281C99.0527 136.281 95.7363 133.041 95.7363 126.561C95.7363 123.771 96.6562 121.539 98.4961 119.863C100.148 118.34 102.035 117.578 104.156 117.578C106.465 117.578 108.27 118.352 109.57 119.898C110.777 121.34 111.381 123.268 111.381 125.682V127.053H99.3926C99.3926 130.369 100.746 132.396 103.453 133.135C104.098 133.311 105.088 133.398 106.424 133.398C107.771 133.398 109.09 133.217 110.379 132.854V135.824C109.09 136.129 107.525 136.281 105.686 136.281ZM107.865 124.469C107.865 123.344 107.555 122.395 106.934 121.621C106.207 120.73 105.205 120.285 103.928 120.285C102.58 120.285 101.484 120.713 100.641 121.568C99.8672 122.365 99.4805 123.332 99.4805 124.469H107.865ZM112.805 117.859H116.549L121.207 132.273L125.918 117.859H129.574L134.338 132.221L138.768 117.859H142.248L136.148 136H132.527L127.641 122.254L123.018 136H119.396L112.805 117.859ZM144.094 126.895C144.094 124.047 145.002 121.738 146.818 119.969C148.518 118.316 150.621 117.49 153.129 117.49C155.59 117.49 157.646 118.316 159.299 119.969C161.057 121.727 161.936 124.035 161.936 126.895C161.936 129.742 161.051 132.039 159.281 133.785C157.605 135.449 155.549 136.281 153.111 136.281C150.639 136.281 148.541 135.449 146.818 133.785C145.002 132.039 144.094 129.742 144.094 126.895ZM147.75 126.895C147.75 129.895 148.711 131.934 150.633 133.012C151.312 133.387 152.127 133.574 153.076 133.574C154.025 133.574 154.828 133.387 155.484 133.012C156.141 132.625 156.68 132.121 157.102 131.5C157.887 130.305 158.279 128.77 158.279 126.895C158.279 123.918 157.336 121.879 155.449 120.777C154.793 120.391 154.008 120.197 153.094 120.197C152.18 120.197 151.383 120.391 150.703 120.777C150.035 121.152 149.484 121.65 149.051 122.271C148.184 123.49 147.75 125.031 147.75 126.895ZM177.791 121.076C177.146 120.889 176.373 120.795 175.471 120.795C174.58 120.795 173.848 120.889 173.273 121.076C172.699 121.252 172.195 121.469 171.762 121.727C170.965 122.195 170.385 122.723 170.021 123.309V136H166.506V117.859H169.881L170.021 120.373C170.9 119.271 172.184 118.445 173.871 117.895C174.48 117.684 175.178 117.578 175.963 117.578C176.748 117.578 177.357 117.637 177.791 117.754V121.076ZM181.535 109.861H185.051V125.98L192.398 117.859H196.582L188.76 126.086L196.986 136H192.697L185.051 126.754V136H181.535V109.861Z" fill="white"/>
</svg>
