<svg width="200" height="200" viewBox="0 0 200 200" fill="none" xmlns="http://www.w3.org/2000/svg">
<rect width="200" height="200" rx="20" fill="#8E6A99"/>
<path d="M11.53 85.965H17.245H17.65V86.415C17.5 86.595 17.395 86.79 17.335 87C17.305 87.21 17.29 87.57 17.29 88.08V97.125H25.165V85.965H30.88H31.285V86.415C31.135 86.595 31.03 86.79 30.97 87C30.94 87.21 30.925 87.57 30.925 88.08V114H25.12V101.625H17.29V114H11.53V85.965ZM40.825 114V90.735H33.445V85.965H54.1V90.735H46.27V114H40.825ZM56.305 114V85.965H61.39L66.34 98.52L71.29 85.92H76.42V114H71.56V94.92L67.69 104.955H64.81L61.12 94.965V114H56.305ZM79.93 85.965H85.645H86.05V86.415C85.9 86.595 85.795 86.79 85.735 87C85.705 87.21 85.69 87.57 85.69 88.08V109.365H98.335V114H79.93V85.965ZM107.155 115.98L101.8 113.685L115.57 83.985L120.79 86.64L107.155 115.98ZM134.965 114.54C133.435 114.54 131.995 114.255 130.645 113.685C129.295 113.115 128.095 112.245 127.045 111.075C125.995 109.905 125.17 108.42 124.57 106.62C124 104.79 123.715 102.63 123.715 100.14C123.715 97.95 123.94 96.03 124.39 94.38C124.87 92.73 125.5 91.35 126.28 90.24C127.06 89.1 127.945 88.185 128.935 87.495C129.925 86.775 130.96 86.265 132.04 85.965C133.12 85.635 134.185 85.47 135.235 85.47C137.395 85.47 139.225 85.95 140.725 86.91C142.255 87.84 143.425 89.19 144.235 90.96L140.905 93.705L140.59 93.975L140.275 93.615C140.305 93.375 140.29 93.15 140.23 92.94C140.17 92.7 140.005 92.385 139.735 91.995C139.135 91.245 138.49 90.75 137.8 90.51C137.11 90.27 136.405 90.15 135.685 90.15C134.905 90.15 134.14 90.36 133.39 90.78C132.67 91.17 132.01 91.77 131.41 92.58C130.81 93.39 130.33 94.41 129.97 95.64C129.61 96.84 129.43 98.265 129.43 99.915C129.43 101.505 129.565 102.915 129.835 104.145C130.135 105.345 130.54 106.38 131.05 107.25C131.56 108.09 132.16 108.735 132.85 109.185C133.57 109.605 134.35 109.815 135.19 109.815C135.91 109.815 136.555 109.725 137.125 109.545C137.695 109.365 138.22 109.065 138.7 108.645C139.18 108.195 139.63 107.595 140.05 106.845L144.01 109.77C142.9 111.54 141.61 112.785 140.14 113.505C138.67 114.195 136.945 114.54 134.965 114.54ZM155.845 114.54C153.955 114.54 152.155 114.27 150.445 113.73C148.765 113.19 147.385 112.35 146.305 111.21L149.05 106.575L149.275 106.215L149.725 106.485C149.785 106.695 149.86 106.92 149.95 107.16C150.04 107.37 150.28 107.64 150.67 107.97C151.39 108.48 152.185 108.915 153.055 109.275C153.955 109.605 154.9 109.785 155.89 109.815C156.55 109.815 157.15 109.755 157.69 109.635C158.23 109.515 158.695 109.335 159.085 109.095C159.475 108.825 159.775 108.48 159.985 108.06C160.195 107.64 160.3 107.145 160.3 106.575C160.3 106.275 160.255 105.975 160.165 105.675C160.105 105.345 159.97 105.03 159.76 104.73C159.58 104.43 159.28 104.13 158.86 103.83C158.47 103.5 157.975 103.155 157.375 102.795C156.775 102.435 156.025 102.06 155.125 101.67C153.175 100.77 151.63 99.9 150.49 99.06C149.38 98.19 148.585 97.26 148.105 96.27C147.625 95.25 147.385 94.08 147.385 92.76C147.385 91.38 147.775 90.15 148.555 89.07C149.365 87.96 150.46 87.09 151.84 86.46C153.22 85.8 154.765 85.47 156.475 85.47C157.705 85.47 158.83 85.605 159.85 85.875C160.9 86.145 161.875 86.55 162.775 87.09C163.675 87.63 164.5 88.305 165.25 89.115L161.83 92.895L161.56 93.21L161.2 92.895C161.17 92.655 161.125 92.43 161.065 92.22C161.005 91.98 160.81 91.68 160.48 91.32C159.94 90.84 159.37 90.525 158.77 90.375C158.17 90.195 157.48 90.105 156.7 90.105C156.13 90.105 155.62 90.18 155.17 90.33C154.72 90.45 154.33 90.63 154 90.87C153.67 91.08 153.415 91.335 153.235 91.635C153.085 91.935 153.01 92.25 153.01 92.58C153.01 92.88 153.04 93.165 153.1 93.435C153.16 93.705 153.295 93.975 153.505 94.245C153.715 94.515 154.015 94.8 154.405 95.1C154.825 95.37 155.35 95.685 155.98 96.045C156.64 96.405 157.465 96.81 158.455 97.26C159.865 97.95 161.05 98.625 162.01 99.285C163 99.915 163.78 100.575 164.35 101.265C164.95 101.925 165.37 102.675 165.61 103.515C165.85 104.325 165.97 105.24 165.97 106.26C165.97 107.67 165.61 109.005 164.89 110.265C164.2 111.495 163.105 112.515 161.605 113.325C160.105 114.135 158.185 114.54 155.845 114.54ZM178.345 114.54C176.455 114.54 174.655 114.27 172.945 113.73C171.265 113.19 169.885 112.35 168.805 111.21L171.55 106.575L171.775 106.215L172.225 106.485C172.285 106.695 172.36 106.92 172.45 107.16C172.54 107.37 172.78 107.64 173.17 107.97C173.89 108.48 174.685 108.915 175.555 109.275C176.455 109.605 177.4 109.785 178.39 109.815C179.05 109.815 179.65 109.755 180.19 109.635C180.73 109.515 181.195 109.335 181.585 109.095C181.975 108.825 182.275 108.48 182.485 108.06C182.695 107.64 182.8 107.145 182.8 106.575C182.8 106.275 182.755 105.975 182.665 105.675C182.605 105.345 182.47 105.03 182.26 104.73C182.08 104.43 181.78 104.13 181.36 103.83C180.97 103.5 180.475 103.155 179.875 102.795C179.275 102.435 178.525 102.06 177.625 101.67C175.675 100.77 174.13 99.9 172.99 99.06C171.88 98.19 171.085 97.26 170.605 96.27C170.125 95.25 169.885 94.08 169.885 92.76C169.885 91.38 170.275 90.15 171.055 89.07C171.865 87.96 172.96 87.09 174.34 86.46C175.72 85.8 177.265 85.47 178.975 85.47C180.205 85.47 181.33 85.605 182.35 85.875C183.4 86.145 184.375 86.55 185.275 87.09C186.175 87.63 187 88.305 187.75 89.115L184.33 92.895L184.06 93.21L183.7 92.895C183.67 92.655 183.625 92.43 183.565 92.22C183.505 91.98 183.31 91.68 182.98 91.32C182.44 90.84 181.87 90.525 181.27 90.375C180.67 90.195 179.98 90.105 179.2 90.105C178.63 90.105 178.12 90.18 177.67 90.33C177.22 90.45 176.83 90.63 176.5 90.87C176.17 91.08 175.915 91.335 175.735 91.635C175.585 91.935 175.51 92.25 175.51 92.58C175.51 92.88 175.54 93.165 175.6 93.435C175.66 93.705 175.795 93.975 176.005 94.245C176.215 94.515 176.515 94.8 176.905 95.1C177.325 95.37 177.85 95.685 178.48 96.045C179.14 96.405 179.965 96.81 180.955 97.26C182.365 97.95 183.55 98.625 184.51 99.285C185.5 99.915 186.28 100.575 186.85 101.265C187.45 101.925 187.87 102.675 188.11 103.515C188.35 104.325 188.47 105.24 188.47 106.26C188.47 107.67 188.11 109.005 187.39 110.265C186.7 111.495 185.605 112.515 184.105 113.325C182.605 114.135 180.685 114.54 178.345 114.54Z" fill="white"/>
</svg>
