<svg width="200" height="200" viewBox="0 0 200 200" fill="none" xmlns="http://www.w3.org/2000/svg">
<rect width="200" height="200" rx="20" fill="#8E6A99"/>
<path d="M20.0625 85.375H24.75V118H20.0625V85.375ZM35.6953 96.4609C37.0547 95.4141 38.5781 94.6484 40.2656 94.1641C41.9688 93.6797 43.4531 93.4375 44.7188 93.4375C45.9844 93.4375 46.9609 93.4688 47.6484 93.5312V83.125H52.3125V118H48.1172L47.9297 115.211C46.9766 116.477 45.5312 117.414 43.5938 118.023C42.8438 118.258 42.0781 118.375 41.2969 118.375C40.5312 118.375 39.7734 118.297 39.0234 118.141C38.2734 117.984 37.5234 117.727 36.7734 117.367C36.0391 116.992 35.3359 116.508 34.6641 115.914C33.9922 115.305 33.3906 114.562 32.8594 113.688C31.7344 111.766 31.1719 109.492 31.1719 106.867C31.1719 104.242 31.5859 102.117 32.4141 100.492C33.2578 98.8516 34.3516 97.5078 35.6953 96.4609ZM38.5312 99.25C37.7344 100 37.1172 100.969 36.6797 102.156C36.2578 103.328 36.0469 104.758 36.0469 106.445C36.0469 108.117 36.25 109.5 36.6562 110.594C37.0625 111.672 37.5703 112.516 38.1797 113.125C39.2578 114.219 40.5547 114.766 42.0703 114.766C44.0234 114.766 45.6406 114.047 46.9219 112.609C47.25 112.25 47.4844 111.93 47.625 111.648V97.2344L47.1562 97.1875C46.4375 97.0938 45.5781 97.0469 44.5781 97.0469C43.5938 97.0469 42.5391 97.2266 41.4141 97.5859C40.2891 97.9297 39.3281 98.4844 38.5312 99.25ZM71.3203 118.375C62.4766 118.375 58.0547 114.055 58.0547 105.414C58.0547 101.695 59.2812 98.7188 61.7344 96.4844C63.9375 94.4531 66.4531 93.4375 69.2812 93.4375C72.3594 93.4375 74.7656 94.4688 76.5 96.5312C78.1094 98.4531 78.9141 101.023 78.9141 104.242V106.07H62.9297C62.9297 110.492 64.7344 113.195 68.3438 114.18C69.2031 114.414 70.5234 114.531 72.3047 114.531C74.1016 114.531 75.8594 114.289 77.5781 113.805V117.766C75.8594 118.172 73.7734 118.375 71.3203 118.375ZM74.2266 102.625C74.2266 101.125 73.8125 99.8594 72.9844 98.8281C72.0156 97.6406 70.6797 97.0469 68.9766 97.0469C67.1797 97.0469 65.7188 97.6172 64.5938 98.7578C63.5625 99.8203 63.0469 101.109 63.0469 102.625H74.2266ZM94.9688 97.4688C92.6406 97.4688 90.5703 98.2578 88.7578 99.8359V118H84.0703V93.8125H88.4062L88.7344 96.4375C91.2812 94.4375 93.9141 93.4375 96.6328 93.4375C99.5078 93.4375 101.617 94.2969 102.961 96.0156C104.367 97.8281 105.07 100.75 105.07 104.781V118H100.383V104.781C100.383 100.906 99.3359 98.5938 97.2422 97.8438C96.5703 97.5938 95.8125 97.4688 94.9688 97.4688ZM120.797 114.297C121.312 114.484 122.094 114.578 123.141 114.578C124.188 114.578 125.062 114.453 125.766 114.203V117.953C125.438 118.031 124.961 118.078 124.336 118.094L122.859 118.141C122.531 118.141 122.281 118.141 122.109 118.141C119.094 118.141 116.867 117.156 115.43 115.188C114.273 113.594 113.695 111.484 113.695 108.859V97.3984H110.227V95.1953L113.695 93.8125L114.82 87.8125H118.383V93.8125H125.883V97.3984H118.383V108.836C118.383 111.898 119.188 113.719 120.797 114.297ZM137.578 86.7812C137.578 87.6719 137.281 88.3594 136.688 88.8438C136.109 89.3125 135.383 89.5469 134.508 89.5469C133.633 89.5469 132.906 89.3125 132.328 88.8438C131.766 88.3594 131.484 87.6719 131.484 86.7812C131.484 85.875 131.766 85.1875 132.328 84.7188C132.906 84.25 133.633 84.0156 134.508 84.0156C135.383 84.0156 136.109 84.25 136.688 84.7188C137.281 85.1875 137.578 85.875 137.578 86.7812ZM132.094 93.8125H136.781V118H132.094V93.8125ZM152.859 114.297C153.375 114.484 154.156 114.578 155.203 114.578C156.25 114.578 157.125 114.453 157.828 114.203V117.953C157.5 118.031 157.023 118.078 156.398 118.094L154.922 118.141C154.594 118.141 154.344 118.141 154.172 118.141C151.156 118.141 148.93 117.156 147.492 115.188C146.336 113.594 145.758 111.484 145.758 108.859V97.3984H142.289V95.1953L145.758 93.8125L146.883 87.8125H150.445V93.8125H157.945V97.3984H150.445V108.836C150.445 111.898 151.25 113.719 152.859 114.297ZM163.172 124C163.594 124.125 164.164 124.188 164.883 124.188C165.617 124.188 166.367 124.039 167.133 123.742C167.898 123.461 168.562 123.062 169.125 122.547C170.062 121.703 170.914 120.375 171.68 118.562L161.742 93.8125H166.734L173.719 113.078L179.977 93.8125H184.922L174.984 120.977C174.234 123.008 173.195 124.562 171.867 125.641C170.117 127.047 167.781 127.75 164.859 127.75C164.594 127.75 164.32 127.734 164.039 127.703L163.172 127.609V124Z" fill="white"/>
</svg>
