<svg width="200" height="200" viewBox="0 0 200 200" fill="none" xmlns="http://www.w3.org/2000/svg">
<rect width="200" height="200" rx="20" fill="#8E6A99"/>
<path d="M73 124.312C72.125 124.312 70.9062 124.26 69.3438 124.156V118.125C70.1771 118.375 71.6771 118.5 73.8438 118.5C76.0312 118.5 77.8646 118.198 79.3438 117.594C80.8438 116.99 82.0938 116.031 83.0938 114.719C85.1146 112.073 86.125 107.833 86.125 102V86.0312H70.0938V80.5H92.375V102C92.375 113.292 88.8229 120.271 81.7188 122.938C79.2812 123.854 76.375 124.312 73 124.312ZM126.906 120.969C125.427 122.01 123.531 122.833 121.219 123.438C118.906 124.021 116.073 124.312 112.719 124.312C109.385 124.312 106.021 124.115 102.625 123.719V117.656C105.667 118.344 108.729 118.688 111.812 118.688C114.896 118.688 117.208 118.521 118.75 118.188C120.292 117.833 121.531 117.375 122.469 116.812C124.198 115.771 125.062 114.417 125.062 112.75C125.062 111.458 124.729 110.458 124.062 109.75C123 108.646 121.469 107.635 119.469 106.719L111.469 103.062C108.719 101.771 106.771 100.573 105.625 99.4688C103.167 97.0938 101.938 94.3438 101.938 91.2188C101.938 88.0104 103.333 85.4167 106.125 83.4375C109.188 81.2708 113.542 80.1875 119.188 80.1875C122.833 80.1875 126.167 80.3333 129.188 80.625V86.5938C126.625 86.0104 123.76 85.7188 120.594 85.7188C117.448 85.7188 115.156 85.8854 113.719 86.2188C112.302 86.5312 111.188 86.9375 110.375 87.4375C108.896 88.3542 108.156 89.5625 108.156 91.0625C108.156 92.5208 108.625 93.7292 109.562 94.6875C110.396 95.5 111.917 96.4375 114.125 97.5L122.344 101.406C125.073 102.698 126.979 103.917 128.062 105.062C129.167 106.208 129.979 107.365 130.5 108.531C131.021 109.677 131.281 111.062 131.281 112.688C131.281 114.292 130.927 115.812 130.219 117.25C129.51 118.667 128.406 119.906 126.906 120.969Z" fill="white"/>
</svg>
