<svg width="200" height="50" viewBox="0 0 200 50" fill="none" xmlns="http://www.w3.org/2000/svg">
<rect width="200" height="50" rx="20" fill="#6C63FF"/>
<path d="M21.444 13.572H26.016H26.34V13.932C26.22 14.076 26.136 14.232 26.088 14.4C26.064 14.568 26.052 14.856 26.052 15.264V32.292H36.168V36H21.444V13.572ZM40.344 36V32.4H44.412V22.716H40.524V19.152H49.02V32.4H52.728V36H40.344ZM46.5 16.596C45.732 16.596 45.072 16.344 44.52 15.84C43.992 15.312 43.728 14.688 43.728 13.968C43.728 13.2 43.98 12.564 44.484 12.06C45.012 11.556 45.684 11.304 46.5 11.304C47.244 11.304 47.892 11.568 48.444 12.096C49.02 12.624 49.308 13.248 49.308 13.968C49.308 14.688 49.02 15.312 48.444 15.84C47.892 16.344 47.244 16.596 46.5 16.596ZM62.628 36L56.436 19.152H61.224L65.148 30.672H64.572L66.624 25.596C67.008 24.492 67.332 23.4 67.596 22.32C67.86 21.216 68.016 20.16 68.064 19.152H72.312C72.216 20.232 71.976 21.36 71.592 22.536C71.208 23.712 70.776 24.888 70.296 26.064L66.264 36H62.628ZM83.22 36.432C82.02 36.432 80.904 36.24 79.872 35.856C78.84 35.448 77.94 34.872 77.172 34.128C76.428 33.384 75.84 32.472 75.408 31.392C74.976 30.312 74.76 29.088 74.76 27.72C74.76 26.328 74.964 25.08 75.372 23.976C75.804 22.848 76.38 21.9 77.1 21.132C77.82 20.364 78.66 19.776 79.62 19.368C80.604 18.96 81.66 18.756 82.788 18.756C83.772 18.756 84.696 18.936 85.56 19.296C86.448 19.632 87.228 20.148 87.9 20.844C88.596 21.54 89.136 22.404 89.52 23.436C89.928 24.468 90.132 25.656 90.132 27C90.132 27.264 90.132 27.588 90.132 27.972C90.132 28.356 90.12 28.68 90.096 28.944H79.188C79.236 29.616 79.38 30.204 79.62 30.708C79.884 31.188 80.208 31.596 80.592 31.932C81 32.244 81.444 32.484 81.924 32.652C82.428 32.796 82.932 32.868 83.436 32.868C83.94 32.868 84.408 32.832 84.84 32.76C85.296 32.664 85.728 32.508 86.136 32.292C86.568 32.076 86.976 31.764 87.36 31.356L89.664 33.624C89.112 34.272 88.5 34.812 87.828 35.244C87.156 35.652 86.424 35.952 85.632 36.144C84.864 36.336 84.06 36.432 83.22 36.432ZM79.224 25.524H85.74C85.74 24.996 85.668 24.528 85.524 24.12C85.404 23.712 85.2 23.376 84.912 23.112C84.648 22.848 84.324 22.656 83.94 22.536C83.556 22.392 83.112 22.32 82.608 22.32C82.176 22.32 81.768 22.38 81.384 22.5C81 22.62 80.652 22.812 80.34 23.076C80.052 23.34 79.812 23.676 79.62 24.084C79.428 24.492 79.296 24.972 79.224 25.524ZM110.868 36V13.572H116.844C118.164 13.572 119.28 13.692 120.192 13.932C121.104 14.172 121.884 14.532 122.532 15.012C123.18 15.468 123.744 16.032 124.224 16.704C124.728 17.376 125.16 18.132 125.52 18.972C125.904 19.812 126.192 20.736 126.384 21.744C126.576 22.728 126.672 23.796 126.672 24.948C126.648 26.652 126.432 28.188 126.024 29.556C125.64 30.9 125.028 32.052 124.188 33.012C123.372 33.972 122.316 34.716 121.02 35.244C119.724 35.748 118.188 36 116.412 36H110.868ZM115.332 32.4H116.34C117.804 32.4 118.968 32.088 119.832 31.464C120.696 30.816 121.308 29.94 121.668 28.836C122.028 27.708 122.208 26.424 122.208 24.984C122.208 23.4 122.052 22.032 121.74 20.88C121.428 19.728 120.864 18.828 120.048 18.18C119.256 17.508 118.14 17.172 116.7 17.172H115.332V32.4ZM137.22 36.432C136.02 36.432 134.904 36.24 133.872 35.856C132.84 35.448 131.94 34.872 131.172 34.128C130.428 33.384 129.84 32.472 129.408 31.392C128.976 30.312 128.76 29.088 128.76 27.72C128.76 26.328 128.964 25.08 129.372 23.976C129.804 22.848 130.38 21.9 131.1 21.132C131.82 20.364 132.66 19.776 133.62 19.368C134.604 18.96 135.66 18.756 136.788 18.756C137.772 18.756 138.696 18.936 139.56 19.296C140.448 19.632 141.228 20.148 141.9 20.844C142.596 21.54 143.136 22.404 143.52 23.436C143.928 24.468 144.132 25.656 144.132 27C144.132 27.264 144.132 27.588 144.132 27.972C144.132 28.356 144.12 28.68 144.096 28.944H133.188C133.236 29.616 133.38 30.204 133.62 30.708C133.884 31.188 134.208 31.596 134.592 31.932C135 32.244 135.444 32.484 135.924 32.652C136.428 32.796 136.932 32.868 137.436 32.868C137.94 32.868 138.408 32.832 138.84 32.76C139.296 32.664 139.728 32.508 140.136 32.292C140.568 32.076 140.976 31.764 141.36 31.356L143.664 33.624C143.112 34.272 142.5 34.812 141.828 35.244C141.156 35.652 140.424 35.952 139.632 36.144C138.864 36.336 138.06 36.432 137.22 36.432ZM133.224 25.524H139.74C139.74 24.996 139.668 24.528 139.524 24.12C139.404 23.712 139.2 23.376 138.912 23.112C138.648 22.848 138.324 22.656 137.94 22.536C137.556 22.392 137.112 22.32 136.608 22.32C136.176 22.32 135.768 22.38 135.384 22.5C135 22.62 134.652 22.812 134.34 23.076C134.052 23.34 133.812 23.676 133.62 24.084C133.428 24.492 133.296 24.972 133.224 25.524ZM146.508 36V19.152H150.252V20.232C150.54 19.872 150.828 19.584 151.116 19.368C151.428 19.152 151.74 18.996 152.052 18.9C152.388 18.804 152.712 18.756 153.024 18.756C153.408 18.756 153.768 18.816 154.104 18.936C154.464 19.056 154.8 19.248 155.112 19.512C155.424 19.776 155.676 20.16 155.868 20.664C156.132 20.208 156.42 19.848 156.732 19.584C157.068 19.296 157.452 19.092 157.884 18.972C158.316 18.828 158.796 18.756 159.324 18.756C159.948 18.756 160.476 18.876 160.908 19.116C161.364 19.332 161.724 19.656 161.988 20.088C162.276 20.496 162.48 21.012 162.6 21.636C162.744 22.236 162.816 22.932 162.816 23.724V36H158.928V24.588C158.928 23.94 158.892 23.436 158.82 23.076C158.772 22.716 158.688 22.452 158.568 22.284C158.448 22.116 158.292 22.032 158.1 22.032C157.836 22.032 157.572 22.164 157.308 22.428C157.068 22.668 156.864 23.028 156.696 23.508C156.552 23.988 156.48 24.588 156.48 25.308V36H152.844V24.66C152.844 23.556 152.772 22.824 152.628 22.464C152.484 22.104 152.232 21.924 151.872 21.924C151.68 21.924 151.488 21.996 151.296 22.14C151.128 22.26 150.972 22.464 150.828 22.752C150.684 23.016 150.576 23.34 150.504 23.724C150.432 24.108 150.396 24.564 150.396 25.092V36H146.508ZM172.464 36.396C170.952 36.396 169.584 36.036 168.36 35.316C167.136 34.572 166.164 33.54 165.444 32.22C164.724 30.876 164.364 29.328 164.364 27.576C164.364 25.92 164.724 24.432 165.444 23.112C166.164 21.768 167.136 20.712 168.36 19.944C169.584 19.152 170.952 18.756 172.464 18.756C173.976 18.756 175.344 19.152 176.568 19.944C177.816 20.712 178.8 21.768 179.52 23.112C180.264 24.432 180.636 25.92 180.636 27.576C180.636 29.304 180.264 30.84 179.52 32.184C178.8 33.504 177.816 34.536 176.568 35.28C175.344 36.024 173.976 36.396 172.464 36.396ZM172.464 32.76C173.184 32.76 173.808 32.544 174.336 32.112C174.888 31.68 175.32 31.08 175.632 30.312C175.944 29.52 176.1 28.608 176.1 27.576C176.1 26.472 175.944 25.536 175.632 24.768C175.32 24 174.888 23.412 174.336 23.004C173.808 22.596 173.184 22.392 172.464 22.392C171.792 22.392 171.18 22.596 170.628 23.004C170.1 23.412 169.68 24 169.368 24.768C169.056 25.536 168.9 26.472 168.9 27.576C168.9 28.608 169.056 29.52 169.368 30.312C169.68 31.08 170.1 31.68 170.628 32.112C171.18 32.544 171.792 32.76 172.464 32.76Z" fill="white"/>
</svg>
