<svg width="214" height="214" viewBox="0 0 214 214" fill="none" xmlns="http://www.w3.org/2000/svg">
<g filter="url(#filter0_d_161_132)">
<rect x="5.5" y="1.5" width="203" height="203" rx="11.5" stroke="#8E6A99" stroke-width="3" shape-rendering="crispEdges"/>
<path d="M98.7188 126.75C96.6562 127.125 93.875 127.312 90.375 127.312C86.8958 127.312 83.75 126.833 80.9375 125.875C78.1458 124.917 75.7396 123.5 73.7188 121.625C69.3854 117.604 67.2188 112 67.2188 104.812C67.2188 100.125 68.3333 96.0625 70.5625 92.625C73.5833 87.9792 78.2188 85.0208 84.4688 83.75C86.3854 83.375 88.6667 83.1875 91.3125 83.1875C93.9792 83.1875 96.1146 83.3333 97.7188 83.625V89.5938C96.2604 89.1354 94 88.9062 90.9375 88.9062C87.8958 88.9062 85.3125 89.2812 83.1875 90.0312C81.0625 90.7812 79.3021 91.8542 77.9062 93.25C75.1146 95.9792 73.7188 99.8333 73.7188 104.812C73.7188 109.833 75.0938 113.812 77.8438 116.75C80.8229 119.917 85.1042 121.5 90.6875 121.5C93.9583 121.5 96.6354 121.25 98.7188 120.75V126.75ZM112.844 116.375H105.531V111.75H113.719L115.969 99.75H108.281V95.125H116.844L118.844 84.5H123.906L121.906 95.125H132.719L134.719 84.5H139.781L137.75 95.125H145.031V99.75H136.875L134.625 111.75H142.344V116.375H133.75L131.75 127H126.688L128.688 116.375H117.906L115.906 127H110.844L112.844 116.375ZM129.562 111.75L131.844 99.75H121.031L118.781 111.75H129.562Z" fill="#6C4F75"/>
</g>
<defs>
<filter id="filter0_d_161_132" x="0" y="0" width="214" height="214" filterUnits="userSpaceOnUse" color-interpolation-filters="sRGB">
<feFlood flood-opacity="0" result="BackgroundImageFix"/>
<feColorMatrix in="SourceAlpha" type="matrix" values="0 0 0 0 0 0 0 0 0 0 0 0 0 0 0 0 0 0 127 0" result="hardAlpha"/>
<feOffset dy="4"/>
<feGaussianBlur stdDeviation="2"/>
<feComposite in2="hardAlpha" operator="out"/>
<feColorMatrix type="matrix" values="0 0 0 0 0 0 0 0 0 0 0 0 0 0 0 0 0 0 0.25 0"/>
<feBlend mode="normal" in2="BackgroundImageFix" result="effect1_dropShadow_161_132"/>
<feBlend mode="normal" in="SourceGraphic" in2="effect1_dropShadow_161_132" result="shape"/>
</filter>
</defs>
</svg>
