<svg width="200" height="200" viewBox="0 0 200 200" fill="none" xmlns="http://www.w3.org/2000/svg">
<rect width="200" height="200" rx="20" fill="#8E6A99"/>
<path d="M52.6875 120.969C51.2083 122.01 49.3125 122.833 47 123.438C44.6875 124.021 41.8542 124.312 38.5 124.312C35.1667 124.312 31.8021 124.115 28.4062 123.719V117.656C31.4479 118.344 34.5104 118.688 37.5938 118.688C40.6771 118.688 42.9896 118.521 44.5312 118.188C46.0729 117.833 47.3125 117.375 48.25 116.812C49.9792 115.771 50.8438 114.417 50.8438 112.75C50.8438 111.458 50.5104 110.458 49.8438 109.75C48.7812 108.646 47.25 107.635 45.25 106.719L37.25 103.062C34.5 101.771 32.5521 100.573 31.4062 99.4688C28.9479 97.0938 27.7188 94.3438 27.7188 91.2188C27.7188 88.0104 29.1146 85.4167 31.9062 83.4375C34.9688 81.2708 39.3229 80.1875 44.9688 80.1875C48.6146 80.1875 51.9479 80.3333 54.9688 80.625V86.5938C52.4062 86.0104 49.5417 85.7188 46.375 85.7188C43.2292 85.7188 40.9375 85.8854 39.5 86.2188C38.0833 86.5312 36.9688 86.9375 36.1562 87.4375C34.6771 88.3542 33.9375 89.5625 33.9375 91.0625C33.9375 92.5208 34.4062 93.7292 35.3438 94.6875C36.1771 95.5 37.6979 96.4375 39.9062 97.5L48.125 101.406C50.8542 102.698 52.7604 103.917 53.8438 105.062C54.9479 106.208 55.7604 107.365 56.2812 108.531C56.8021 109.677 57.0625 111.062 57.0625 112.688C57.0625 114.292 56.7083 115.812 56 117.25C55.2917 118.667 54.1875 119.906 52.6875 120.969ZM79.6562 80.5H83.9375L102.281 124H95.7812L91.375 113.062H72.0625L67.6875 124H61.3125L79.6562 80.5ZM89.375 108.062L81.75 89L74.0938 108.062H89.375ZM132.75 120.969C131.271 122.01 129.375 122.833 127.062 123.438C124.75 124.021 121.917 124.312 118.562 124.312C115.229 124.312 111.865 124.115 108.469 123.719V117.656C111.51 118.344 114.573 118.688 117.656 118.688C120.74 118.688 123.052 118.521 124.594 118.188C126.135 117.833 127.375 117.375 128.312 116.812C130.042 115.771 130.906 114.417 130.906 112.75C130.906 111.458 130.573 110.458 129.906 109.75C128.844 108.646 127.312 107.635 125.312 106.719L117.312 103.062C114.562 101.771 112.615 100.573 111.469 99.4688C109.01 97.0938 107.781 94.3438 107.781 91.2188C107.781 88.0104 109.177 85.4167 111.969 83.4375C115.031 81.2708 119.385 80.1875 125.031 80.1875C128.677 80.1875 132.01 80.3333 135.031 80.625V86.5938C132.469 86.0104 129.604 85.7188 126.438 85.7188C123.292 85.7188 121 85.8854 119.562 86.2188C118.146 86.5312 117.031 86.9375 116.219 87.4375C114.74 88.3542 114 89.5625 114 91.0625C114 92.5208 114.469 93.7292 115.406 94.6875C116.24 95.5 117.76 96.4375 119.969 97.5L128.188 101.406C130.917 102.698 132.823 103.917 133.906 105.062C135.01 106.208 135.823 107.365 136.344 108.531C136.865 109.677 137.125 111.062 137.125 112.688C137.125 114.292 136.771 115.812 136.062 117.25C135.354 118.667 134.25 119.906 132.75 120.969ZM170.125 120.969C168.646 122.01 166.75 122.833 164.438 123.438C162.125 124.021 159.292 124.312 155.938 124.312C152.604 124.312 149.24 124.115 145.844 123.719V117.656C148.885 118.344 151.948 118.688 155.031 118.688C158.115 118.688 160.427 118.521 161.969 118.188C163.51 117.833 164.75 117.375 165.688 116.812C167.417 115.771 168.281 114.417 168.281 112.75C168.281 111.458 167.948 110.458 167.281 109.75C166.219 108.646 164.688 107.635 162.688 106.719L154.688 103.062C151.938 101.771 149.99 100.573 148.844 99.4688C146.385 97.0938 145.156 94.3438 145.156 91.2188C145.156 88.0104 146.552 85.4167 149.344 83.4375C152.406 81.2708 156.76 80.1875 162.406 80.1875C166.052 80.1875 169.385 80.3333 172.406 80.625V86.5938C169.844 86.0104 166.979 85.7188 163.812 85.7188C160.667 85.7188 158.375 85.8854 156.938 86.2188C155.521 86.5312 154.406 86.9375 153.594 87.4375C152.115 88.3542 151.375 89.5625 151.375 91.0625C151.375 92.5208 151.844 93.7292 152.781 94.6875C153.615 95.5 155.135 96.4375 157.344 97.5L165.562 101.406C168.292 102.698 170.198 103.917 171.281 105.062C172.385 106.208 173.198 107.365 173.719 108.531C174.24 109.677 174.5 111.062 174.5 112.688C174.5 114.292 174.146 115.812 173.438 117.25C172.729 118.667 171.625 119.906 170.125 120.969Z" fill="white"/>
</svg>
